<svg width="49" height="48" viewBox="0 0 49 48" fill="none" xmlns="http://www.w3.org/2000/svg">
<g id="icon/gamepad-2">
<path id="Vector" d="M12.1894 22H20.3561" stroke="black" stroke-width="2" stroke-linecap="round" stroke-linejoin="round"/>
<path id="Vector_2" d="M16.2728 18V26" stroke="black" stroke-width="2" stroke-linecap="round" stroke-linejoin="round"/>
<path id="Vector_3" d="M30.5644 24H30.5848" stroke="black" stroke-width="2" stroke-linecap="round" stroke-linejoin="round"/>
<path id="Vector_4" d="M36.6894 20H36.7098" stroke="black" stroke-width="2" stroke-linecap="round" stroke-linejoin="round"/>
<path id="Vector_5" d="M35.3011 10H13.5778C11.5571 10.0005 9.60832 10.7348 8.1082 12.0609C6.60808 13.3871 5.66312 15.211 5.456 17.18C5.44375 17.284 5.43559 17.382 5.4213 17.484C5.25592 18.832 4.02275 28.912 4.02275 32C4.02275 33.5913 4.66807 35.1174 5.81673 36.2426C6.96539 37.3679 8.5233 38 10.1478 38C12.1894 38 13.2103 37 14.2311 36L17.118 33.172C17.8836 32.4218 18.922 32.0002 20.0049 32H28.8739C29.9568 32.0002 30.9952 32.4218 31.7608 33.172L34.6478 36C35.6686 37 36.6894 38 38.7311 38C40.3555 38 41.9135 37.3679 43.0621 36.2426C44.2108 35.1174 44.8561 33.5913 44.8561 32C44.8561 28.91 43.6229 18.832 43.4575 17.484C43.4433 17.384 43.4351 17.284 43.4228 17.182C43.2162 15.2126 42.2714 13.3883 40.7713 12.0617C39.2711 10.7351 37.3221 10.0005 35.3011 10Z" stroke="black" stroke-width="2" stroke-linecap="round" stroke-linejoin="round"/>
</g>
</svg>
