<svg width="48" height="49" viewBox="0 0 48 49" fill="none" xmlns="http://www.w3.org/2000/svg">
<g id="icon/boxes">
<path id="Vector" d="M5.88962 26.7758C5.29913 27.1306 4.81027 27.6318 4.47039 28.231C4.13051 28.8301 3.95113 29.5069 3.94962 30.1958V36.6758C3.95113 37.3647 4.13051 38.0414 4.47039 38.6406C4.81027 39.2398 5.29913 39.741 5.88962 40.0958L11.8896 43.6958C12.5117 44.0696 13.2238 44.267 13.9496 44.267C14.6754 44.267 15.3875 44.0696 16.0096 43.6958L23.9496 38.9358V27.9358L13.9496 21.9358L5.88962 26.7758Z" stroke="black" stroke-width="2" stroke-linecap="round" stroke-linejoin="round"/>
<path id="Vector_2" d="M13.9496 33.9358L4.46962 28.2358" stroke="black" stroke-width="2" stroke-linecap="round" stroke-linejoin="round"/>
<path id="Vector_3" d="M13.9496 33.9358L23.9496 27.9358" stroke="black" stroke-width="2" stroke-linecap="round" stroke-linejoin="round"/>
<path id="Vector_4" d="M13.9496 33.9358V44.2758" stroke="black" stroke-width="2" stroke-linecap="round" stroke-linejoin="round"/>
<path id="Vector_5" d="M23.9496 27.9358V38.9358L31.8896 43.6958C32.5117 44.0696 33.2238 44.267 33.9496 44.267C34.6754 44.267 35.3875 44.0696 36.0096 43.6958L42.0096 40.0958C42.6001 39.741 43.089 39.2398 43.4288 38.6406C43.7687 38.0414 43.9481 37.3647 43.9496 36.6758V30.1958C43.9481 29.5069 43.7687 28.8301 43.4288 28.231C43.089 27.6318 42.6001 27.1306 42.0096 26.7758L33.9496 21.9358L23.9496 27.9358Z" stroke="black" stroke-width="2" stroke-linecap="round" stroke-linejoin="round"/>
<path id="Vector_6" d="M33.9496 33.9358L23.9496 27.9358" stroke="black" stroke-width="2" stroke-linecap="round" stroke-linejoin="round"/>
<path id="Vector_7" d="M33.9496 33.9358L43.4296 28.2358" stroke="black" stroke-width="2" stroke-linecap="round" stroke-linejoin="round"/>
<path id="Vector_8" d="M33.9496 33.9358V44.2758" stroke="black" stroke-width="2" stroke-linecap="round" stroke-linejoin="round"/>
<path id="Vector_9" d="M15.8896 9.77573C15.2991 10.1305 14.8103 10.6317 14.4704 11.2309C14.1305 11.8301 13.9511 12.5069 13.9496 13.1957V21.9357L23.9496 27.9357L33.9496 21.9357V13.1957C33.9481 12.5069 33.7687 11.8301 33.4288 11.2309C33.089 10.6317 32.6001 10.1305 32.0096 9.77573L26.0096 6.17573C25.3875 5.80196 24.6754 5.60449 23.9496 5.60449C23.2238 5.60449 22.5117 5.80196 21.8896 6.17573L15.8896 9.77573Z" stroke="black" stroke-width="2" stroke-linecap="round" stroke-linejoin="round"/>
<path id="Vector_10" d="M23.9496 16.9358L14.4696 11.2358" stroke="black" stroke-width="2" stroke-linecap="round" stroke-linejoin="round"/>
<path id="Vector_11" d="M23.9496 16.9358L33.4296 11.2358" stroke="black" stroke-width="2" stroke-linecap="round" stroke-linejoin="round"/>
<path id="Vector_12" d="M23.9496 27.9358V16.9358" stroke="black" stroke-width="2" stroke-linecap="round" stroke-linejoin="round"/>
</g>
</svg>
