<svg width="49" height="48" viewBox="0 0 49 48" fill="none" xmlns="http://www.w3.org/2000/svg">
<g id="icon/baby">
<path id="Vector" d="M18.6879 24H18.7069" stroke="black" stroke-width="2" stroke-linecap="round" stroke-linejoin="round"/>
<path id="Vector_2" d="M30.6879 24H30.7069" stroke="black" stroke-width="2" stroke-linecap="round" stroke-linejoin="round"/>
<path id="Vector_3" d="M20.6879 32C21.6879 32.6 23.0879 33 24.6879 33C26.2879 33 27.6879 32.6 28.6879 32" stroke="black" stroke-width="2" stroke-linecap="round" stroke-linejoin="round"/>
<path id="Vector_4" d="M38.6879 12.6C40.4998 14.8713 41.735 17.5476 42.2879 20.4C42.9642 20.7275 43.5345 21.239 43.9336 21.8756C44.3327 22.5123 44.5443 23.2486 44.5443 24C44.5443 24.7514 44.3327 25.4877 43.9336 26.1244C43.5345 26.761 42.9642 27.2725 42.2879 27.6C41.4245 31.627 39.2062 35.2361 36.0033 37.8251C32.8003 40.4141 28.8064 41.8264 24.6879 41.8264C20.5694 41.8264 16.5755 40.4141 13.3725 37.8251C10.1696 35.2361 7.95131 31.627 7.08789 27.6C6.41161 27.2725 5.84126 26.761 5.44219 26.1244C5.04311 25.4877 4.83145 24.7514 4.83145 24C4.83145 23.2486 5.04311 22.5123 5.44219 21.8756C5.84126 21.239 6.41161 20.7275 7.08789 20.4C7.91642 16.341 10.1197 12.692 13.3259 10.0687C16.5322 7.44542 20.5452 6.00836 24.6879 6C28.6879 6 31.6879 8.2 31.6879 11C31.6879 13.8 29.8879 16 27.6879 16C26.0879 16 24.6879 15.2 24.6879 14" stroke="black" stroke-width="2" stroke-linecap="round" stroke-linejoin="round"/>
</g>
</svg>
